<svg width="530" height="530" viewBox="0 0 530 530" fill="none" xmlns="http://www.w3.org/2000/svg">
<circle cx="265" cy="265" r="265" fill="#395E9F"/>
<path d="M390.456 295.907C385.098 283.265 365.292 278.75 337.6 283.386V239.5C337.6 223.534 331.258 208.222 319.968 196.932C308.678 185.642 293.366 179.3 277.4 179.3H253.32C237.354 179.3 222.042 185.642 210.752 196.932C199.463 208.222 193.12 223.534 193.12 239.5V283.446C165.428 278.75 145.622 283.446 140.265 295.907C139.283 298.451 138.835 301.169 138.949 303.893C139.063 306.616 139.736 309.288 140.927 311.74C142.471 315.199 144.497 318.422 146.947 321.312C90.7803 331.787 90.7803 345.994 90.7803 350.87C90.7803 381.813 205.16 390 265.36 390C325.56 390 439.94 381.813 439.94 350.87C439.94 345.994 439.94 331.787 383.834 321.252C386.283 318.362 388.31 315.139 389.854 311.68C391.027 309.231 391.685 306.569 391.789 303.856C391.892 301.143 391.439 298.438 390.456 295.907ZM379.379 300.603C379.701 301.657 379.808 302.765 379.694 303.861C379.58 304.957 379.248 306.019 378.717 306.984C374.322 317.399 354.637 334.375 322.069 347.077C313.441 350.249 304.435 352.273 295.28 353.097C295.257 352.402 295.071 351.722 294.738 351.111C291.618 345.741 288.075 340.627 284.143 335.82C286.756 334.992 289.173 333.64 291.246 331.847L329.834 297.593C358.249 290.61 376.55 293.981 379.379 300.603ZM205.16 239.5C205.16 226.727 210.234 214.477 219.266 205.446C228.298 196.414 240.547 191.34 253.32 191.34H277.4C290.173 191.34 302.423 196.414 311.455 205.446C320.486 214.477 325.56 226.727 325.56 239.5V284.951L283.42 322.516C281.917 323.87 279.965 324.619 277.942 324.619C275.919 324.619 273.967 323.87 272.464 322.516C272.443 322.417 272.443 322.314 272.464 322.215C272.948 320.491 273.191 318.708 273.186 316.917C273.162 315.124 272.899 313.343 272.404 311.62L306.657 267.553C307.39 266.366 307.688 264.962 307.5 263.58V239.5H295.46V261.533L265.36 300.182L235.26 261.533V239.5H223.22V263.58C223.224 264.91 223.669 266.201 224.484 267.252L259.34 311.74C259.673 312.168 259.956 312.632 260.183 313.125C260.716 314.234 261.004 315.446 261.026 316.676C261.04 317.866 260.772 319.042 260.243 320.108C259.862 320.922 259.331 321.657 258.678 322.275C257.201 323.681 255.239 324.465 253.2 324.465C251.16 324.465 249.199 323.681 247.722 322.275L205.582 284.71L205.16 239.5ZM151.341 300.603C154.171 293.981 172.472 290.61 200.946 297.292L239.414 331.546C242.971 334.695 247.528 336.483 252.277 336.594C257.026 336.704 261.661 335.129 265.36 332.148C270.728 337.753 275.621 343.793 279.989 350.208C266.323 353.278 236.284 357.733 208.652 347.017C176.023 334.315 156.398 317.339 152.004 306.924C151.481 305.967 151.153 304.915 151.039 303.83C150.926 302.745 151.028 301.648 151.341 300.603V300.603ZM427.9 350.87C427.9 359.9 370.53 377.96 265.36 377.96C160.191 377.96 102.82 359.9 102.82 350.87C102.82 348.643 112.211 338.83 157.301 331.606C171.437 342.967 187.313 351.972 204.317 358.275C218.286 363.509 233.106 366.101 248.023 365.92C253.815 365.92 259.603 365.598 265.36 364.957C271.018 365.582 276.705 365.904 282.397 365.92C297.331 366.083 312.168 363.492 326.162 358.275C343.357 352.025 359.42 343.018 373.72 331.606C418.509 339.071 427.9 348.643 427.9 350.87Z" fill="white"/>
<path d="M307.5 131.14C307.5 122.806 305.029 114.658 300.398 107.728C295.768 100.798 289.187 95.3972 281.487 92.2077C273.786 89.0183 265.313 88.1837 257.139 89.8097C248.965 91.4357 241.456 95.4492 235.563 101.343C229.669 107.236 225.656 114.745 224.03 122.919C222.404 131.093 223.238 139.566 226.428 147.266C229.617 154.966 235.019 161.548 241.949 166.178C248.878 170.809 257.026 173.28 265.36 173.28C276.536 173.28 287.255 168.84 295.158 160.938C303.061 153.035 307.5 142.316 307.5 131.14V131.14ZM235.26 131.14C235.26 125.187 237.026 119.367 240.333 114.417C243.64 109.467 248.341 105.609 253.841 103.331C259.342 101.053 265.394 100.457 271.232 101.618C277.071 102.78 282.435 105.647 286.644 109.856C290.854 114.066 293.72 119.429 294.882 125.268C296.043 131.107 295.447 137.159 293.169 142.659C290.891 148.159 287.033 152.86 282.083 156.167C277.133 159.475 271.313 161.24 265.36 161.24C257.377 161.24 249.721 158.069 244.076 152.424C238.431 146.779 235.26 139.123 235.26 131.14V131.14Z" fill="white"/>
</svg>
